<svg width="35" height="35" viewBox="0 0 35 35" fill="none" xmlns="http://www.w3.org/2000/svg">
<path d="M35 17.0417C35 16.4894 34.5523 16.0417 34 16.0417H19.9583C19.406 16.0417 18.9583 15.594 18.9583 15.0417V1C18.9583 0.447716 18.5106 0 17.9583 0H17.0417C16.4894 0 16.0417 0.447715 16.0417 1V15.0417C16.0417 15.594 15.594 16.0417 15.0417 16.0417H1C0.447716 16.0417 0 16.4894 0 17.0417V17.9583C0 18.5106 0.447715 18.9583 1 18.9583H15.0417C15.594 18.9583 16.0417 19.406 16.0417 19.9583V34C16.0417 34.5523 16.4894 35 17.0417 35H17.9583C18.5106 35 18.9583 34.5523 18.9583 34V19.9583C18.9583 19.406 19.406 18.9583 19.9583 18.9583H34C34.5523 18.9583 35 18.5106 35 17.9583V17.0417Z" fill="black"/>
</svg>
