<svg width="41" height="40" viewBox="0 0 41 40" fill="none" xmlns="http://www.w3.org/2000/svg">
<path d="M14.6254 32.5907C14.1727 32.9393 13.7568 33.3466 13.3223 33.7174L10.2565 36.3146C9.83598 36.666 9.42718 37.0807 8.97202 37.3864C8.51542 37.6932 7.89498 37.5972 7.85216 37.0266C7.8382 36.8406 7.87203 36.6346 7.89888 36.4501L8.43414 33.1064C8.63385 31.8986 8.87713 30.7123 8.31106 29.5521C8.14249 29.2067 7.89094 28.892 7.67151 28.5756C7.07798 27.7197 6.67635 26.8309 6.4443 25.8254L6.32862 25.244C6.31173 25.151 6.33752 25.052 6.24188 25.0055C5.39284 24.5926 4.52701 24.5226 3.78064 23.8005C3.4191 23.4507 3.44693 23.1186 3.44627 22.6451C2.39876 22.467 1.57874 21.4601 1.43151 20.4669C1.37994 20.119 1.39779 19.7566 1.39765 19.4055C1.39722 18.3509 1.36429 17.322 2.27511 16.5679C2.46317 16.4122 3.15971 15.9464 3.40199 15.9834C3.44722 15.9902 3.42016 15.9957 3.46248 15.9764C3.53417 14.5215 4.38511 14.2307 5.64277 13.8177L6.11004 13.6716C6.15469 13.659 6.25399 13.646 6.29051 13.6236C6.30366 13.6155 6.41037 12.952 6.42641 12.871C7.02749 9.83096 8.75973 8.29518 11.5981 7.3526C13.6046 6.68627 15.7497 6.3912 17.8586 6.26074L19.8898 6.19356L19.8783 5.84882C19.7924 5.77805 19.7257 5.76471 19.6298 5.71896C17.9961 4.93964 18.3338 2.38856 20.4267 2.19506C22.2516 2.09614 23.1556 4.53636 21.5491 5.55383C21.4299 5.62936 21.2593 5.67842 21.1576 5.76732L21.1551 6.17288L22.3834 6.21273C24.7943 6.348 27.2562 6.60436 29.5487 7.38335C33.0357 8.56823 34.1233 10.3557 34.7327 13.6416C35.5981 13.7613 37.2845 14.4031 37.4794 15.2714L37.4861 15.3026C37.6252 15.9165 37.3121 15.8623 37.8528 16.0393C39.3617 16.5332 39.5893 17.6288 39.5925 18.9891C39.5941 19.6587 39.6514 20.3962 39.4228 21.037C39.1801 21.717 38.6239 22.3294 37.8749 22.4634C37.7948 22.4777 37.6989 22.4781 37.6255 22.5128L37.6003 23.1151C37.4783 24.1848 35.9365 24.6283 35.0543 24.8632C34.4812 25.0158 34.7427 24.931 34.5931 25.6639C33.6197 30.4348 29.7141 31.0222 25.5314 31.4541L22.3166 31.6936L18.9261 31.6975C17.0594 31.6938 16.2445 31.3049 14.6254 32.5907ZM20.389 3.41913C19.6016 3.71169 19.7257 4.74399 20.6279 4.65447C21.4451 4.45059 21.2094 3.39297 20.389 3.41913ZM19.5879 7.39164C17.3238 7.40622 14.6357 7.72067 12.4854 8.33721C8.88706 9.36885 7.86889 11.0341 7.41679 14.3974L7.15311 17.1369L7.14677 21.0069C7.15109 21.4662 7.20972 21.9261 7.24463 22.3841C7.35729 23.8619 7.44513 25.4216 8.05777 26.798C8.31298 27.3714 8.68094 27.844 9.03648 28.3566C10.1418 29.9502 9.97812 31.4705 9.69336 33.2615L9.30378 35.5272L12.297 32.9813C13.3709 32.0546 14.3883 30.9733 15.8096 30.5778C16.3309 30.4622 16.7901 30.4317 17.3262 30.4334L18.399 30.4453C18.8171 30.4638 19.1595 30.4995 19.6044 30.5004L21.7711 30.4977C21.9399 30.491 22.1098 30.4574 22.2806 30.4496L23.6957 30.3936L27.1564 30.0247C31.755 29.3451 33.1183 28.2958 33.6457 23.5427L33.8637 20.9666L33.8718 17.5584C33.8676 17.4358 33.8425 17.3155 33.836 17.1931L33.6234 14.7493C33.1974 11.4532 32.5027 9.58112 28.8799 8.44432C27.1534 7.90261 25.4191 7.68259 23.6187 7.5279L21.8708 7.39722L19.5879 7.39164ZM34.8852 14.9031L35.1267 17.3341L35.1296 20.8637L34.8927 23.6455L35.8661 23.2822C36.0203 23.2118 36.1752 23.1553 36.3169 23.0633L36.295 15.5592L34.8852 14.9031ZM6.05347 14.9706L5.28952 15.2781C5.10232 15.3605 4.90298 15.4461 4.74259 15.5735C4.69467 15.91 4.68343 16.2513 4.66191 16.5902L4.60467 21.2205C4.61947 21.5201 4.69309 22.9767 4.72698 23.0154C4.83469 23.1383 5.06234 23.2342 5.21311 23.3007L5.7528 23.5237C5.86765 23.5668 6.00029 23.6015 6.10147 23.6706L5.89612 21.1567L5.88504 19.209C5.88542 18.2823 5.87001 17.3545 5.95874 16.4307L6.09097 15.1059C6.09767 15.0502 6.12383 15.0106 6.084 14.9673L6.05347 14.9706ZM37.6149 17.2443C37.6994 17.9003 37.6703 18.5763 37.6711 19.236C37.6717 19.9027 37.7001 20.5843 37.6359 21.2481C37.8021 21.1748 37.9409 21.0698 38.0742 20.9495C38.468 20.4459 38.3937 19.7604 38.3934 19.163C38.3929 18.4041 38.3921 17.7941 37.6968 17.2952L37.6149 17.2443ZM3.36483 17.3338C3.05527 17.4888 2.81142 17.6889 2.71596 18.0095L2.69348 18.0923C2.5341 18.692 2.57056 20.3818 2.87523 20.886L2.98691 21.0455C3.09087 21.1656 3.25816 21.2556 3.33623 21.3823L3.36483 17.3338Z" fill="currentColor"/>
<path d="M20.7901 29.1384C18.3699 29.1507 16.0147 28.5444 14.1574 26.9429C12.2829 25.3266 11.4854 22.9061 11.1727 20.5515L11.0666 19.5131C11.054 19.3727 11.03 19.2327 11.0233 19.0918L11.0154 16.5927C11.0173 16.3952 11.0062 16.1778 11.0616 15.9863L11.0703 15.957C11.2257 15.3898 12.0069 15.048 12.4837 14.7813C14.5174 13.6439 17.4822 12.6174 19.8818 12.5517L19.8799 11.8668C19.8143 11.8155 19.7421 11.8077 19.6661 11.7797C18.2497 11.258 18.3211 8.91994 20.2916 8.61901C22.2808 8.44096 23.0874 10.9854 21.4013 11.7163C21.3125 11.7548 21.2109 11.7636 21.1189 11.7998L21.1149 12.5433C23.6579 12.6345 26.85 13.7017 28.9475 15.0006C29.447 15.3099 29.9647 15.4922 29.9958 16.1209L30.0054 17.5781C30.0053 18.1516 30.0226 18.7332 29.9851 19.3052L29.9192 19.9029C29.6748 22.2119 29.025 24.6611 27.3826 26.4101C25.7134 28.1878 23.2113 29.0345 20.7901 29.1384ZM20.3462 9.82838C19.682 10.0927 19.8668 10.8373 20.6132 10.7377C21.3523 10.4924 21.0664 9.72103 20.3462 9.82838ZM20.0296 13.7328C17.9107 13.8869 15.9371 14.4814 14.0341 15.3702L13.0721 15.8531C12.9549 15.9187 12.3404 16.2511 12.2836 16.3153L12.3182 19.5059C12.4706 21.5712 12.9686 23.8906 14.4182 25.4754C15.6723 26.8466 17.9085 27.8204 19.8091 27.9215L21.0455 27.9307C25.5247 27.5626 27.8436 25.0261 28.5282 20.8594L28.7186 19.3067C28.7679 18.9202 28.7507 18.508 28.7514 18.1184L28.7464 16.3284C28.6713 16.244 28.597 16.2308 28.503 16.1777L27.9458 15.8416C25.9209 14.7012 23.5024 13.9056 21.1665 13.7428L20.0296 13.7328Z" fill="currentColor"/>
<path d="M16.8125 20.5472C14.306 20.5819 14.1924 17.152 16.6348 16.9218C18.7786 16.7678 19.4002 20.1929 16.8125 20.5472ZM16.6275 18.1455C15.8324 18.4147 16.0675 19.4105 16.7855 19.2937C17.5255 19.0609 17.4016 18.1333 16.6275 18.1455Z" fill="currentColor"/>
<path d="M24.5087 20.5212C24.0478 20.5714 23.5811 20.4413 23.2048 20.1813C21.8654 19.2563 22.3972 17.2165 24.1132 16.9589C26.5021 16.7192 26.9371 20.1858 24.5087 20.5212ZM24.2754 18.1684C23.5109 18.3281 23.5787 19.2673 24.3287 19.2941C25.0925 19.1523 25.0444 18.2292 24.2754 18.1684Z" fill="currentColor"/>
<path d="M24.4772 24.6167C22.4075 25.8657 19.478 25.9807 17.2639 24.9998C16.8949 24.8363 16.223 24.5806 16.0833 24.1871C15.9459 23.8006 16.2045 23.518 16.5733 23.4201C16.9306 23.4066 17.1696 23.6147 17.4757 23.7636C19.3221 24.662 21.5308 24.6452 23.393 23.8161C23.7984 23.6356 24.4426 23.1133 24.8263 23.6341C25.1256 24.0403 24.8195 24.3887 24.4772 24.6167Z" fill="currentColor"/>
</svg>
