<svg width="13" height="16" viewBox="0 0 13 16" fill="none" xmlns="http://www.w3.org/2000/svg">
<path d="M5.8192 12.0201C5.89954 12.0201 5.93974 12.067 5.95983 12.1406C6.1674 13.2589 6.15403 13.2857 7.3192 13.5067C7.39954 13.5201 7.44643 13.567 7.44643 13.6473C7.44643 13.7277 7.39954 13.7746 7.3192 13.788C6.16071 14.0223 6.1942 14.0491 5.95983 15.154C5.93974 15.2277 5.89954 15.2746 5.8192 15.2746C5.73883 15.2746 5.69866 15.2277 5.67857 15.154C5.4442 14.0491 5.48437 14.0223 4.3192 13.788C4.24554 13.7746 4.19197 13.7277 4.19197 13.6473C4.19197 13.567 4.24554 13.5201 4.3192 13.5067C5.48437 13.2723 5.47097 13.2589 5.67857 12.1406C5.69866 12.067 5.73883 12.0201 5.8192 12.0201ZM2.57814 7.41294C2.70537 7.41294 2.79243 7.49331 2.8058 7.61383C3.04689 9.4018 3.10714 9.4018 4.95537 9.75669C5.07591 9.7768 5.16294 9.85714 5.16294 9.98437C5.16294 10.1049 5.07591 10.192 4.95537 10.2121C3.10714 10.4665 3.04017 10.5268 2.8058 12.3482C2.79243 12.4687 2.70537 12.5558 2.57814 12.5558C2.4576 12.5558 2.37054 12.4687 2.35714 12.3415C2.13617 10.5469 2.0424 10.5536 0.2076 10.2121C0.087057 10.1853 0 10.1049 0 9.98437C0 9.85046 0.0870572 9.7768 0.234371 9.75669C2.0558 9.46206 2.13617 9.41517 2.35714 7.62723C2.37054 7.49331 2.4576 7.41294 2.57814 7.41294ZM7.11831 0C7.29243 0 7.41966 0.127228 7.45311 0.308028C7.92857 3.97768 8.4442 4.53349 12.0737 4.93529C12.2612 4.95537 12.3884 5.096 12.3884 5.27009C12.3884 5.4442 12.2612 5.57814 12.0737 5.60491C8.4442 6.00671 7.92857 6.56251 7.45311 10.2321C7.41966 10.4129 7.29243 10.5335 7.11831 10.5335C6.9442 10.5335 6.81697 10.4129 6.7902 10.2321C6.31474 6.56251 5.79243 6.00671 2.16963 5.60491C1.97546 5.57814 1.84823 5.4442 1.84823 5.27009C1.84823 5.096 1.97546 4.95537 2.16963 4.93529C5.78571 4.45983 6.28794 3.97097 6.7902 0.308028C6.81697 0.127228 6.9442 0 7.11831 0Z" fill="#737373"/>
</svg>
