<svg width="25" height="30" viewBox="0 0 25 30" fill="none" xmlns="http://www.w3.org/2000/svg">
<path d="M13.75 18.7496H11.25V6.24956H13.75V18.7496ZM13.4913 29.6346C16.1912 28.5496 25 24.2846 25 14.9883V6.83331C25.0002 6.04634 24.7522 5.27935 24.2912 4.64152C23.8302 4.00369 23.1798 3.52753 22.4325 3.28081L12.5 -0.0129395L2.5675 3.28081C1.8202 3.52753 1.16977 4.00369 0.708791 4.64152C0.247813 5.27935 -0.000219404 6.04634 1.45627e-07 6.83331V14.9883C1.45627e-07 23.1921 8.75625 28.2083 11.4412 29.5521L12.4412 30.0521L13.4913 29.6346ZM21.645 5.65331C21.893 5.73591 22.1089 5.89417 22.2622 6.10584C22.4156 6.3175 22.4988 6.57192 22.5 6.83331V14.9883C22.5 22.7171 14.8912 26.3783 12.5588 27.3158C10.1987 26.1346 2.5 21.7583 2.5 14.9883V6.83331C2.50125 6.57192 2.5844 6.3175 2.73777 6.10584C2.89114 5.89417 3.107 5.73591 3.355 5.65331L12.5 2.62456L21.645 5.65331ZM13.75 21.2496H11.25V23.7496H13.75V21.2496Z" fill="#FF0000"/>
</svg>
