<svg width="25" height="25" viewBox="0 0 25 25" fill="none" xmlns="http://www.w3.org/2000/svg">
<g clip-path="url(#clip0_915_41)">
<path d="M24.9997 25H12.5185C10.0799 24.9988 7.69495 24.2844 5.65734 22.9448C3.61973 21.6051 2.01846 19.6987 1.05077 17.4604C0.0830778 15.222 -0.208775 12.7495 0.211159 10.3474C0.631094 7.9453 1.74447 5.71846 3.41417 3.94119C5.08386 2.16392 7.23693 0.913846 9.6082 0.344936C11.9795 -0.223974 14.4653 -0.0868704 16.7597 0.73936C19.054 1.56559 21.0565 3.04486 22.5206 4.99497C23.9848 6.94507 24.8465 9.28085 24.9997 11.7146V11.7802V25ZM12.5185 2.08333C9.7558 2.08333 7.10628 3.1808 5.15278 5.1343C3.19927 7.08781 2.1018 9.73733 2.1018 12.5C2.1018 15.2627 3.19927 17.9122 5.15278 19.8657C7.10628 21.8192 9.7558 22.9167 12.5185 22.9167H22.9164V11.8135C22.7378 9.17637 21.5651 6.70524 19.6351 4.8992C17.7051 3.09316 15.1617 2.08679 12.5185 2.08333Z" fill="black"/>
<path d="M13.542 7.2915H7.29199V9.37483H13.542V7.2915Z" fill="black"/>
<path d="M17.7087 11.4585H7.29199V13.5418H17.7087V11.4585Z" fill="black"/>
<path d="M17.7087 15.625H7.29199V17.7083H17.7087V15.625Z" fill="black"/>
</g>
<defs>
<clipPath id="clip0_915_41">
<rect width="25" height="25" fill="white"/>
</clipPath>
</defs>
</svg>
