<svg width="35" height="33" viewBox="0 0 35 33" fill="none" xmlns="http://www.w3.org/2000/svg">
<path d="M25.5211 0C23.8789 0.0255426 22.2726 0.483953 20.8643 1.32894C19.4559 2.17392 18.2955 3.37556 17.5002 4.8125C16.7049 3.37556 15.5445 2.17392 14.1362 1.32894C12.7279 0.483953 11.1215 0.0255426 9.47939 0C6.8616 0.113736 4.39521 1.25891 2.61907 3.18534C0.842936 5.11176 -0.0985789 7.66285 0.000224004 10.2812C0.000224004 20.1615 15.9777 31.5729 16.6573 32.0571L17.5002 32.6535L18.3431 32.0571C19.0227 31.5758 35.0002 20.1615 35.0002 10.2812C35.099 7.66285 34.1575 5.11176 32.3814 3.18534C30.6052 1.25891 28.1389 0.113736 25.5211 0ZM17.5002 29.0631C12.7563 25.5194 2.91689 16.8131 2.91689 10.2812C2.8172 8.43604 3.45117 6.62627 4.68055 5.24665C5.90992 3.86702 7.63494 3.02947 9.47939 2.91667C11.3238 3.02947 13.0489 3.86702 14.2782 5.24665C15.5076 6.62627 16.1416 8.43604 16.0419 10.2812H18.9586C18.8589 8.43604 19.4928 6.62627 20.7222 5.24665C21.9516 3.86702 23.6766 3.02947 25.5211 2.91667C27.3655 3.02947 29.0905 3.86702 30.3199 5.24665C31.5493 6.62627 32.1832 8.43604 32.0836 10.2812C32.0836 16.816 22.2442 25.5194 17.5002 29.0631Z" fill="black"/>
</svg>
