<svg width="26" height="25" viewBox="0 0 26 25" fill="none" xmlns="http://www.w3.org/2000/svg">
<circle cx="13" cy="8" r="7" fill="currentColor"/>
<path d="M7.5 23.5L9 15.5V14.5C10.2368 15.4811 11.1544 15.7472 13.5 15.5C14.5912 15.465 15.4527 15.2987 16.9769 15.0045L17 15L18 23.5L13 20.5L7.5 23.5Z" fill="currentColor" stroke="black"/>
<path d="M8.89352 14.4688L7.58268 23.9584L12.9993 20.8334L18.416 23.9584L17.1052 14.4584M20.5827 8.33341C20.5827 12.3605 17.1875 15.6251 12.9993 15.6251C8.81119 15.6251 5.41602 12.3605 5.41602 8.33341C5.41602 4.30634 8.81119 1.04175 12.9993 1.04175C17.1875 1.04175 20.5827 4.30634 20.5827 8.33341Z" stroke="#1E1E1E" stroke-width="1.6" stroke-linecap="round" stroke-linejoin="round"/>
</svg>
