<svg width="40" height="40" viewBox="0 0 40 40" fill="none" xmlns="http://www.w3.org/2000/svg">
<path d="M7.5001 32.5003V36.6669H5.00007C4.55803 36.6669 4.1341 36.4913 3.82154 36.1788C3.50897 35.8662 3.33338 35.4423 3.33338 35.0003V32.5003H7.5001ZM10.8335 29.167H0V35.0003C0 36.3263 0.526791 37.5981 1.46449 38.5358C2.40218 39.4734 3.67397 40.0002 5.00007 40.0002H10.8335V29.167Z" fill="currentColor"/>
<path d="M36.6666 32.5003V35.0003C36.6666 35.4423 36.491 35.8662 36.1784 36.1788C35.8659 36.4913 35.4419 36.6669 34.9999 36.6669H32.4999V32.5003H36.6666ZM40 29.167H29.1665V40.0002H34.9999C36.326 40.0002 37.5978 39.4734 38.5355 38.5358C39.4732 37.5981 40 36.3263 40 35.0003V29.167Z" fill="currentColor"/>
<path d="M7.5001 17.9163V22.0829H3.33338V17.9163H7.5001ZM10.8335 14.583H0V25.4162H10.8335V14.583Z" fill="currentColor"/>
<path d="M36.6666 17.9163V22.0829H32.4999V17.9163H36.6666ZM40 14.583H29.1665V25.4162H40V14.583Z" fill="currentColor"/>
<path d="M7.5001 3.33331V7.49995H3.33338V4.99997C3.33338 4.55794 3.50897 4.13402 3.82154 3.82146C4.1341 3.5089 4.55803 3.33331 5.00007 3.33331H7.5001ZM10.8335 0H5.00007C3.67397 0 2.40218 0.526781 1.46449 1.46446C0.526791 2.40213 0 3.67389 0 4.99997L0 10.8333H10.8335V0Z" fill="currentColor"/>
<path d="M22.0841 32.5003V36.6669H17.9174V32.5003H22.0841ZM25.4174 29.167H14.584V40.0002H25.4174V29.167Z" fill="currentColor"/>
<path d="M22.0841 17.9163V22.0829H17.9174V17.9163H22.0841ZM25.4174 14.583H14.584V25.4162H25.4174V14.583Z" fill="currentColor"/>
<path d="M22.0841 3.33331V7.49995H17.9174V3.33331H22.0841ZM25.4174 0H14.584V10.8333H25.4174V0Z" fill="currentColor"/>
<path d="M34.9999 3.33331C35.4419 3.33331 35.8659 3.5089 36.1784 3.82146C36.491 4.13402 36.6666 4.55794 36.6666 4.99997V7.49995H32.4999V3.33331H34.9999ZM34.9999 0H29.1665V10.8333H40V4.99997C40 3.67389 39.4732 2.40213 38.5355 1.46446C37.5978 0.526781 36.326 0 34.9999 0V0Z" fill="currentColor"/>
</svg>
