<svg width="26" height="25" viewBox="0 0 26 25" fill="none" xmlns="http://www.w3.org/2000/svg">
<path fill-rule="evenodd" clip-rule="evenodd" d="M18.6875 1.67029C18.3674 1.67029 18.0504 1.73493 17.7547 1.86052C17.459 1.98612 17.1903 2.17021 16.9639 2.40227C16.7376 2.63434 16.558 2.90985 16.4355 3.21306C16.313 3.51627 16.25 3.84126 16.25 4.16945C16.25 4.49765 16.313 4.82263 16.4355 5.12584C16.558 5.42905 16.7376 5.70456 16.9639 5.93663C17.1903 6.1687 17.459 6.35278 17.7547 6.47838C18.0504 6.60397 18.3674 6.66862 18.6875 6.66862C19.334 6.66862 19.954 6.40531 20.4111 5.93663C20.8682 5.46794 21.125 4.83227 21.125 4.16945C21.125 3.50663 20.8682 2.87096 20.4111 2.40227C19.954 1.93359 19.334 1.67029 18.6875 1.67029ZM14.7063 3.3364C14.8927 2.3948 15.391 1.54826 16.1165 0.940215C16.8421 0.332165 17.7504 0 18.6875 0C19.6246 0 20.5329 0.332165 21.2585 0.940215C21.984 1.54826 22.4823 2.3948 22.6687 3.3364H26V5.00251H22.6687C22.4823 5.9441 21.984 6.79064 21.2585 7.39869C20.5329 8.00674 19.6246 8.3389 18.6875 8.3389C17.7504 8.3389 16.8421 8.00674 16.1165 7.39869C15.391 6.79064 14.8927 5.9441 14.7063 5.00251H0V3.3364H14.7063ZM7.3125 10.0008C6.66603 10.0008 6.04605 10.2641 5.58893 10.7328C5.13181 11.2015 4.875 11.8372 4.875 12.5C4.875 13.1628 5.13181 13.7985 5.58893 14.2672C6.04605 14.7359 6.66603 14.9992 7.3125 14.9992C7.95897 14.9992 8.57895 14.7359 9.03607 14.2672C9.49319 13.7985 9.75 13.1628 9.75 12.5C9.75 11.8372 9.49319 11.2015 9.03607 10.7328C8.57895 10.2641 7.95897 10.0008 7.3125 10.0008ZM3.33125 11.6669C3.51773 10.7254 4.01597 9.87881 4.74154 9.27076C5.46711 8.66271 6.3754 8.33055 7.3125 8.33055C8.2496 8.33055 9.15789 8.66271 9.88346 9.27076C10.609 9.87881 11.1073 10.7254 11.2937 11.6669H26V13.3331H11.2937C11.1073 14.2746 10.609 15.1212 9.88346 15.7292C9.15789 16.3373 8.2496 16.6695 7.3125 16.6695C6.3754 16.6695 5.46711 16.3373 4.74154 15.7292C4.01597 15.1212 3.51773 14.2746 3.33125 13.3331H0V11.6669H3.33125ZM18.6875 18.3314C18.041 18.3314 17.421 18.5947 16.9639 19.0634C16.5068 19.5321 16.25 20.1677 16.25 20.8305C16.25 21.4934 16.5068 22.129 16.9639 22.5977C17.421 23.0664 18.041 23.3297 18.6875 23.3297C19.334 23.3297 19.954 23.0664 20.4111 22.5977C20.8682 22.129 21.125 21.4934 21.125 20.8305C21.125 20.1677 20.8682 19.5321 20.4111 19.0634C19.954 18.5947 19.334 18.3314 18.6875 18.3314ZM14.7063 19.9975C14.8927 19.0559 15.391 18.2094 16.1165 17.6013C16.8421 16.9933 17.7504 16.6611 18.6875 16.6611C19.6246 16.6611 20.5329 16.9933 21.2585 17.6013C21.984 18.2094 22.4823 19.0559 22.6687 19.9975H26V21.6636H22.6687C22.4823 22.6052 21.984 23.4517 21.2585 24.0598C20.5329 24.6678 19.6246 25 18.6875 25C17.7504 25 16.8421 24.6678 16.1165 24.0598C15.391 23.4517 14.8927 22.6052 14.7063 21.6636H0V19.9975H14.7063Z" fill="black"/>
</svg>
