<svg width="24" height="25" viewBox="0 0 24 25" fill="none" overflow="visible" xmlns="http://www.w3.org/2000/svg">
<path d="M9.82487 18.5292L6.47868 22.3125L6.45474 0H4.61263L4.63658 22.299L1.30237 18.5281L0 20L3.60961 24.0823C3.86619 24.3725 4.17082 24.6028 4.5061 24.7598C4.84137 24.9169 5.20072 24.9978 5.56362 24.9978C5.92652 24.9978 6.28587 24.9169 6.62114 24.7598C6.95641 24.6028 7.26104 24.3725 7.51763 24.0823L11.1272 20L9.82487 18.5292Z" fill="black"/>
<path d="M14.1368 6.47085L17.483 2.68752L17.507 25H19.3491L19.3251 2.70106L22.6593 6.47189L23.9617 5.00002L20.3521 0.917725C20.0955 0.627486 19.7909 0.397252 19.4556 0.240173C19.1203 0.0830942 18.761 0.00224543 18.3981 0.00224543C18.0352 0.00224543 17.6758 0.0830942 17.3406 0.240173C17.0053 0.397252 16.7007 0.627486 16.4441 0.917725L12.8345 5.00002L14.1368 6.47085Z" fill="black"/>
</svg>
