<svg width="14" height="14" viewBox="0 0 14 14" fill="none" xmlns="http://www.w3.org/2000/svg">
<path d="M5.35059 1.73218C5.81219 0.222715 7.94953 0.22271 8.41113 1.73218L9.03418 3.77124C9.08575 3.93916 9.24129 4.05347 9.41699 4.05347H11.5576C13.0837 4.05383 13.7433 5.98803 12.5352 6.92065L10.7012 8.33569C10.5695 8.43732 10.514 8.61022 10.5625 8.76929L11.2383 10.9792C11.6939 12.4704 9.96485 13.6664 8.73047 12.7136L7.125 11.4734C6.98102 11.3624 6.77965 11.3623 6.63574 11.4734L5.03027 12.7136C3.79596 13.6659 2.06701 12.4702 2.52246 10.9792L3.19824 8.76929C3.24678 8.61017 3.19224 8.43736 3.06055 8.33569L1.22656 6.92065C0.018309 5.98794 0.677719 4.05347 2.2041 4.05347H4.34473C4.52043 4.05342 4.67602 3.9392 4.72754 3.77124L5.35059 1.73218Z" stroke="black" stroke-width="1.2"/>
</svg>
