<svg width="40" height="39" viewBox="0 0 40 39" fill="none" xmlns="http://www.w3.org/2000/svg">
<path d="M19.3389 1.85059C19.4852 1.38319 20.1466 1.38317 20.293 1.85059L23.5586 12.3027C24.0152 13.7639 25.3685 14.7588 26.8994 14.7588H37.6279C38.1075 14.7588 38.3123 15.3691 37.9297 15.6582L29.1162 22.3164C27.9373 23.2072 27.4451 24.743 27.8857 26.1533L31.2197 36.8252C31.3643 37.289 30.8292 37.6656 30.4414 37.373L21.9258 30.9385C20.6774 29.9953 18.9545 29.9953 17.7061 30.9385L9.19043 37.373C8.8026 37.6657 8.26755 37.289 8.41211 36.8252L11.7461 26.1533C12.1867 24.743 11.6945 23.2072 10.5156 22.3164L1.70215 15.6582C1.31951 15.3691 1.5243 14.7588 2.00391 14.7588H12.7324C14.2633 14.7588 15.6167 13.7639 16.0732 12.3027L19.3389 1.85059Z" stroke="black" stroke-width="3"/>
</svg>
