<svg width="54" height="49" viewBox="0 0 54 49" fill="none" xmlns="http://www.w3.org/2000/svg">
<path d="M24.6227 1.35511C25.2382 -0.451702 27.7936 -0.451702 28.4091 1.35511L33.351 15.8628C33.627 16.6731 34.3881 17.2179 35.2442 17.2179H51.028C52.9883 17.2179 53.7784 19.7452 52.1672 20.8617L39.5629 29.5967C38.8286 30.1055 38.5209 31.0397 38.809 31.8854L43.6613 46.1301C44.2833 47.9562 42.2145 49.5177 40.6289 48.4188L27.6551 39.4279C26.9699 38.953 26.0619 38.953 25.3767 39.4279L12.4029 48.4188C10.8172 49.5177 8.74844 47.9562 9.37049 46.1301L14.2228 31.8854C14.5109 31.0397 14.2032 30.1055 13.4689 29.5967L0.864557 20.8617C-0.746618 19.7452 0.0435028 17.2179 2.00376 17.2179H17.7876C18.6436 17.2179 19.4048 16.6731 19.6808 15.8628L24.6227 1.35511Z" fill="#E6E6E6"/>
</svg>
