<svg width="25" height="25" viewBox="0 0 25 25" fill="none" xmlns="http://www.w3.org/2000/svg">
<g clip-path="url(#clip0_915_26)">
<path d="M12.5 0C10.0277 0 7.61099 0.733112 5.55538 2.10663C3.49976 3.48015 1.89761 5.43238 0.951511 7.71646C0.00541608 10.0005 -0.242126 12.5139 0.24019 14.9386C0.722505 17.3634 1.91301 19.5907 3.66117 21.3388C5.40933 23.087 7.63661 24.2775 10.0614 24.7598C12.4861 25.2421 14.9995 24.9946 17.2835 24.0485C19.5676 23.1024 21.5199 21.5002 22.8934 19.4446C24.2669 17.389 25 14.9723 25 12.5C24.9964 9.18589 23.6783 6.00855 21.3349 3.66512C18.9915 1.3217 15.8141 0.00358446 12.5 0V0ZM12.5 2.08333C14.9026 2.08142 17.2312 2.91432 19.0875 4.43958L4.43959 19.0875C3.19018 17.5623 2.39965 15.7137 2.16002 13.7567C1.92039 11.7997 2.24153 9.81494 3.08603 8.03337C3.93054 6.25181 5.26369 4.74675 6.9303 3.69338C8.5969 2.64001 10.5284 2.08166 12.5 2.08333ZM12.5 22.9167C10.0974 22.9186 7.76883 22.0857 5.91251 20.5604L20.5604 5.9125C21.8098 7.43767 22.6004 9.28633 22.84 11.2433C23.0796 13.2003 22.7585 15.1851 21.914 16.9666C21.0695 18.7482 19.7363 20.2533 18.0697 21.3066C16.4031 22.36 14.4716 22.9183 12.5 22.9167Z" fill="#FF0000"/>
</g>
<defs>
<clipPath id="clip0_915_26">
<rect width="25" height="25" fill="white"/>
</clipPath>
</defs>
</svg>
