<svg width="25" height="24" viewBox="0 0 25 24" fill="currentColor" xmlns="http://www.w3.org/2000/svg">
<path d="M18.2293 0C17.0564 0.0182447 15.909 0.345681 14.903 0.949241C13.8971 1.5528 13.0682 2.41111 12.5002 3.4375C11.9321 2.41111 11.1032 1.5528 10.0973 0.949241C9.09135 0.345681 7.94396 0.0182447 6.77099 0C4.90114 0.0812403 3.13944 0.899223 1.87077 2.27524C0.602097 3.65126 -0.0704135 5.47346 0.000160004 7.34375C0.000160004 14.401 11.4127 22.5521 11.8981 22.8979L12.5002 23.324L13.1022 22.8979C13.5877 22.5542 25.0002 14.401 25.0002 7.34375C25.0707 5.47346 24.3982 3.65126 23.1296 2.27524C21.8609 0.899223 20.0992 0.0812403 18.2293 0ZM12.5002 20.7594C9.11162 18.2281 2.08349 12.0094 2.08349 7.34375C2.01229 6.02575 2.46512 4.73305 3.34325 3.7476C4.22137 2.76216 5.45353 2.16391 6.77099 2.08333C8.08846 2.16391 9.32062 2.76216 10.1987 3.7476C11.0769 4.73305 11.5297 6.02575 11.4585 7.34375H13.5418C13.4706 6.02575 13.9235 4.73305 14.8016 3.7476C15.6797 2.76216 16.9119 2.16391 18.2293 2.08333C19.5468 2.16391 20.779 2.76216 21.6571 3.7476C22.5352 4.73305 22.988 6.02575 22.9168 7.34375C22.9168 12.0115 15.8887 18.2281 12.5002 20.7594Z" fill="currentColor"/>
</svg>
