<svg width="21" height="20" viewBox="0 0 21 20" fill="none" xmlns="http://www.w3.org/2000/svg">
<path d="M8.2122 1.38197C8.8109 -0.460654 11.4177 -0.460656 12.0164 1.38197L13.033 4.51064C13.3007 5.33469 14.0687 5.89261 14.9351 5.89261H18.2248C20.1622 5.89261 20.9678 8.37184 19.4004 9.51064L16.739 11.4443C16.038 11.9536 15.7447 12.8563 16.0124 13.6803L17.029 16.809C17.6277 18.6516 15.5187 20.1839 13.9513 19.0451L11.2899 17.1115C10.5889 16.6022 9.63972 16.6022 8.93874 17.1115L6.27733 19.0451C4.7099 20.1839 2.60094 18.6516 3.19965 16.809L4.21622 13.6803C4.48396 12.8563 4.19065 11.9536 3.48967 11.4443L0.828264 9.51064C-0.739164 8.37184 0.0663857 5.89261 2.00383 5.89261H5.29352C6.15997 5.89261 6.92788 5.33469 7.19563 4.51064L8.2122 1.38197Z" fill="#FFF716"/>
</svg>
