<svg width="30" height="30" viewBox="0 0 30 30" fill="none" xmlns="http://www.w3.org/2000/svg">
<g clip-path="url(#clip0_933_52)">
<path d="M16.25 18.7496H13.75V6.24956H16.25V18.7496ZM15.9913 29.6346C18.6912 28.5496 27.5 24.2846 27.5 14.9883V6.83331C27.5002 6.04634 27.2522 5.27935 26.7912 4.64152C26.3302 4.00369 25.6798 3.52753 24.9325 3.28081L15 -0.0129395L5.0675 3.28081C4.3202 3.52753 3.66977 4.00369 3.20879 4.64152C2.74781 5.27935 2.49978 6.04634 2.5 6.83331V14.9883C2.5 23.1921 11.2562 28.2083 13.9412 29.5521L14.9412 30.0521L15.9913 29.6346ZM24.145 5.65331C24.393 5.73591 24.6089 5.89417 24.7622 6.10584C24.9156 6.3175 24.9988 6.57192 25 6.83331V14.9883C25 22.7171 17.3912 26.3783 15.0588 27.3158C12.6987 26.1346 5 21.7583 5 14.9883V6.83331C5.00125 6.57192 5.0844 6.3175 5.23777 6.10584C5.39114 5.89417 5.607 5.73591 5.855 5.65331L15 2.62456L24.145 5.65331ZM16.25 21.2496H13.75V23.7496H16.25V21.2496Z" fill="#FFB83D"/>
</g>
<defs>
<clipPath id="clip0_933_52">
<rect width="30" height="30" fill="white"/>
</clipPath>
</defs>
</svg>
