<svg width="20" height="20" viewBox="0 0 20 20" fill="none" xmlns="http://www.w3.org/2000/svg">
<g clip-path="url(#clip0_167_177)">
<path d="M17.5 0H2.5C1.83696 0 1.20107 0.263392 0.732233 0.732233C0.263392 1.20107 0 1.83696 0 2.5L0 20H20V2.5C20 1.83696 19.7366 1.20107 19.2678 0.732233C18.7989 0.263392 18.163 0 17.5 0V0ZM2.5 1.66667H17.5C17.721 1.66667 17.933 1.75446 18.0893 1.91074C18.2455 2.06702 18.3333 2.27899 18.3333 2.5V17.155L9.2675 8.08917C8.79868 7.62049 8.16291 7.3572 7.5 7.3572C6.83709 7.3572 6.20132 7.62049 5.7325 8.08917L1.66667 12.155V2.5C1.66667 2.27899 1.75446 2.06702 1.91074 1.91074C2.06702 1.75446 2.27899 1.66667 2.5 1.66667V1.66667ZM1.66667 14.5117L6.91083 9.2675C7.06711 9.11127 7.27903 9.02351 7.5 9.02351C7.72097 9.02351 7.93289 9.11127 8.08917 9.2675L17.155 18.3333H1.66667V14.5117Z" fill="currentColor"/>
<path d="M13.333 8.33277C13.8275 8.33277 14.3108 8.18614 14.7219 7.91144C15.1331 7.63674 15.4535 7.24629 15.6427 6.78947C15.8319 6.33266 15.8814 5.82999 15.785 5.34504C15.6885 4.86009 15.4504 4.41463 15.1008 4.065C14.7511 3.71537 14.3057 3.47726 13.8207 3.3808C13.3358 3.28434 12.8331 3.33385 12.3763 3.52307C11.9195 3.71229 11.529 4.03272 11.2543 4.44384C10.9796 4.85496 10.833 5.33831 10.833 5.83276C10.833 6.49581 11.0964 7.13169 11.5652 7.60053C12.0341 8.06937 12.67 8.33277 13.333 8.33277V8.33277ZM13.333 4.99943C13.4978 4.99943 13.6589 5.04831 13.796 5.13987C13.933 5.23144 14.0398 5.36159 14.1029 5.51386C14.166 5.66613 14.1825 5.83369 14.1503 5.99534C14.1182 6.15699 14.0388 6.30548 13.9223 6.42202C13.8057 6.53856 13.6572 6.61793 13.4956 6.65009C13.3339 6.68224 13.1664 6.66574 13.0141 6.60266C12.8618 6.53959 12.7317 6.43278 12.6401 6.29574C12.5485 6.1587 12.4997 5.99758 12.4997 5.83276C12.4997 5.61175 12.5875 5.39979 12.7438 5.24351C12.9 5.08723 13.112 4.99943 13.333 4.99943V4.99943Z" fill="currentColor"/>
</g>
<defs>
<clipPath id="clip0_167_177">
<rect width="20" height="20" fill="currentColor"/>
</clipPath>
</defs>
</svg>
