<svg width="24" height="24" viewBox="0 0 24 24" fill="none" xmlns="http://www.w3.org/2000/svg">
<g clip-path="url(#clip0_168_185)">
<path d="M21.9932 23.9991H23.9932V15.9991C23.9913 13.614 23.0435 11.3269 21.3576 9.6397C19.6716 7.95247 17.3853 7.00285 15.0002 6.99914L10.1572 6.84515V0.431152L0.870162 9.72414C0.307749 10.2867 -0.00819874 11.0496 -0.00819874 11.8451C-0.00819874 12.6406 0.307749 13.4036 0.870162 13.9661L10.1552 23.2591V16.8451L15.0002 16.9991C16.855 17.0026 18.6327 17.7414 19.9436 19.0536C21.2545 20.3658 21.9916 22.1443 21.9932 23.9991V23.9991ZM14.9932 14.9991L8.15116 14.8451V18.4311L2.27716 12.5521C2.08969 12.3646 1.98437 12.1103 1.98437 11.8451C1.98437 11.58 2.08969 11.3257 2.27716 11.1381L8.15616 5.25915V8.84514L15.0002 8.99914C16.8562 9.00073 18.6357 9.73874 19.9482 11.0511C21.2606 12.3636 21.9986 14.1431 22.0002 15.9991V18.3481C21.1581 17.302 20.092 16.4581 18.8806 15.8785C17.6691 15.2989 16.3431 14.9984 15.0002 14.9991H14.9932Z" fill="black"/>
</g>
<defs>
<clipPath id="clip0_168_185">
<rect width="24" height="24" fill="white" transform="matrix(-1 0 0 1 24 0)"/>
</clipPath>
</defs>
</svg>
