<svg width="200" height="200" viewBox="0 0 200 200" fill="none" xmlns="http://www.w3.org/2000/svg">
<g clip-path="url(#clip0_722_1135)">
<rect width="200" height="200" rx="100" fill="#878787"/>
<path d="M142 74C142 97.7482 122.524 117 98.5 117C74.4756 117 55 97.7482 55 74C55 50.2518 74.4756 31 98.5 31C122.524 31 142 50.2518 142 74Z" fill="white"/>
<path d="M179 200.279C179 229.562 137.652 228.999 102.767 228.999C67.8824 228.999 20 227.353 20 198.069C20 168.786 48.3151 136.372 100.589 134C155.041 136.372 179 170.995 179 200.279Z" fill="white"/>
</g>
<defs>
<clipPath id="clip0_722_1135">
<rect width="200" height="200" rx="100" fill="white"/>
</clipPath>
</defs>
</svg>
