<svg width="90" height="90" viewBox="0 0 90 90" fill="none" xmlns="http://www.w3.org/2000/svg">
<path d="M90 45C90 69.8528 69.8528 90 45 90C20.1472 90 0 69.8528 0 45C0 20.1472 20.1472 0 45 0C69.8528 0 90 20.1472 90 45Z" fill="#F3E5DC"/>
<path d="M2.24129 59.7393C1.27543 56.9651 0.75829 53.9814 1.29672 51.0936C4.99632 31.2512 40.8057 51.2602 46 53C51.533 54.8533 87.2476 14.4678 89.5 38.4999C90.2104 44.8464 90.2101 48.4454 88.8849 54.9999C84.3376 75.0398 66.4159 90 45 90C25.3094 90 8.37364 77.3532 2.24129 59.7393Z" fill="#E3D3C4"/>
<path d="M54.1598 20.8642C54.2711 21.3001 54.4933 21.6975 54.6716 22.1104C54.7727 22.3444 54.847 22.5895 54.8962 22.8626C55.2075 24.5901 55.9447 26.2902 57.5761 26.9381C57.964 27.0676 58.1687 27.0505 58.4337 26.3209C59.1553 24.5132 59.2215 23.5 58.4337 21.6923C57.9488 20.2702 57.6337 19.4827 55.7094 18.3861C54.8668 17.855 54.4459 17.7364 54.095 18.9151C53.9484 19.6189 53.9727 20.1307 54.1598 20.8642Z" fill="#E0D0C1"/>
<path d="M54.742 18.0105C54.8825 17.9819 55.0345 18.0139 55.1988 18.0823C55.3635 18.1509 55.5472 18.259 55.7539 18.3906C56.6993 18.9351 57.2536 19.4052 57.6308 19.9184C58.0073 20.4307 58.205 20.9832 58.4422 21.6859C58.8292 22.5833 59.0079 23.287 58.9997 23.9924C58.9915 24.6975 58.7965 25.4007 58.4425 26.2969C58.3772 26.4786 58.3149 26.6182 58.2516 26.7227C58.1884 26.8271 58.1225 26.8997 58.0482 26.9445C57.8951 27.0369 57.7265 26.9997 57.5371 26.9358L57.5357 26.9353L57.5343 26.9348L54.8144 25.8434L54.8111 25.8421C54.7937 25.8351 54.7833 25.8172 54.7857 25.7987C55.0914 23.4625 54.9881 22.5367 54.3468 21.5472C54.3448 21.544 54.3432 21.5405 54.3421 21.537C53.9991 20.4223 53.9094 19.8365 54.0939 18.9421L54.0942 18.9404L54.0946 18.9389C54.1811 18.6456 54.2728 18.4292 54.3765 18.2789C54.4805 18.128 54.5998 18.0394 54.742 18.0105ZM55.1566 18.1613C55.0005 18.0963 54.873 18.0733 54.7642 18.0955C54.6569 18.1173 54.5568 18.1854 54.461 18.3243C54.3649 18.4636 54.2762 18.6698 54.1907 18.9594C54.0492 19.6472 54.072 20.1472 54.2535 20.8672C54.3618 21.2964 54.578 21.6885 54.7525 22.0953C54.8586 22.3429 54.9351 22.6026 54.9838 22.8937C55.2651 24.5741 55.9928 26.2203 57.574 26.8547C57.764 26.9187 57.8856 26.9368 57.9924 26.8724C58.0483 26.8386 58.105 26.7796 58.1643 26.6816C58.2236 26.5838 58.2838 26.4501 58.3483 26.2707L58.3487 26.2695C58.7017 25.3761 58.8928 24.683 58.9008 23.9916C58.9088 23.3006 58.734 22.6078 58.3492 21.7157L58.3485 21.7141L58.3481 21.7126C58.1102 21.0079 57.9158 20.4667 57.5478 19.966C57.1804 19.466 56.6376 19.0035 55.698 18.4625L55.697 18.462L55.6961 18.4614C55.4898 18.3301 55.3124 18.2262 55.1566 18.1613Z" fill="#E0D0C1"/>
<path d="M30.1857 20.363C30.0589 20.8396 29.9959 21.3325 30.0008 21.8256C30.0167 23.4168 30.276 24.5322 31.1322 25.8479C31.5954 26.5597 32.5244 26.7665 33.3032 26.4281C34.2476 26.0176 34.6932 24.9297 34.3082 23.9746L33.8139 22.7485C33.7058 22.4803 33.6344 22.1984 33.5974 21.9116C33.356 20.0379 33.1092 18.8836 33.9208 16.6705C34.3677 15.8013 32.7814 16.3 32.0491 16.9472C31.1541 17.7382 30.6286 18.698 30.1857 20.363Z" fill="#E0D0C1"/>
<path d="M33.751 16.0005C33.8811 15.9964 33.9809 16.0166 34.0404 16.0781C34.1037 16.1436 34.1073 16.2396 34.0827 16.3446C34.0581 16.4499 34.002 16.5795 33.9246 16.7319C33.4999 17.9035 33.3736 18.7718 33.3833 19.6099C33.3917 20.3323 33.5009 21.0312 33.6101 21.8872C33.6466 22.1733 33.7171 22.4543 33.8239 22.7222L34.983 25.6295C34.9925 25.6533 34.9814 25.6802 34.958 25.6905L32.0081 26.9869C31.9904 26.9946 31.9697 26.9896 31.9575 26.9747C31.1086 25.929 30.6031 25.075 30.3192 24.1708C30.0354 23.2668 29.9745 22.3166 30.0085 21.0815C30.0086 21.0782 30.009 21.0748 30.0097 21.0715C30.3264 19.6673 30.6687 18.7016 31.1612 17.947C31.6541 17.1916 32.2949 16.6515 33.2021 16.0938C33.2059 16.0916 33.2101 16.0898 33.2144 16.0888C33.4411 16.0347 33.6181 16.0047 33.751 16.0005ZM33.7535 16.0966C33.408 16.1074 33.0866 16.2696 32.8011 16.4645C32.1307 16.9219 31.6319 17.3913 31.233 18.0026C31.1921 18.0653 31.1522 18.1295 31.1134 18.1953C30.0714 19.9589 29.789 22.1853 30.4026 24.1397C30.5721 24.6797 30.8226 25.2031 31.183 25.7646C31.6261 26.4549 32.5239 26.6566 33.2749 26.3266C34.1719 25.9324 34.5954 24.8983 34.2325 23.9881L33.5798 22.351C33.5781 22.3468 33.577 22.3423 33.5765 22.3378C33.4535 21.2823 33.3051 20.4603 33.2952 19.6111C33.2853 18.7587 33.4144 17.8775 33.8435 16.6944L33.8446 16.6915L33.846 16.6888C33.9237 16.5358 33.9756 16.4141 33.9974 16.3209C34.0194 16.2267 34.0077 16.1766 33.9798 16.1478C33.948 16.1149 33.8808 16.0926 33.7535 16.0966Z" fill="#E0D0C1"/>
<path d="M42.9112 18.075C43.9192 19.6024 44.2388 20.6999 44.1717 22.0072C44.1186 23.0429 44.8461 24 45.8831 24C46.3812 24 46.8614 23.7772 47.1356 23.3615C47.9933 22.0608 48.0909 21.033 47.9431 19.2977C47.7683 17.9235 47.5407 16.9045 47.2379 16.0138C46.4219 13.6127 44.8733 11.1251 45.5311 8.67598C45.8476 7.49771 46.6641 5.68424 45.5374 6.1523C45.374 6.22019 45.187 6.30863 44.977 6.41322C43.9807 6.83874 43.2759 7.26227 42.7557 7.72719C40.8438 9.43574 40.6012 12.4793 41.3339 14.9364C41.6284 15.9239 42.1335 16.8907 42.9112 18.075Z" fill="#E0D0C1"/>
<path d="M45.983 6.00592C46.0645 5.99535 46.1387 5.99814 46.2016 6.02081C46.3351 6.06895 46.3882 6.19307 46.3867 6.36892C46.3853 6.54616 46.3292 6.79505 46.22 7.12597C46.2192 7.12832 46.2182 7.13072 46.2171 7.13291C45.7513 8.00552 45.4974 8.74473 45.4087 9.57539C45.1973 11.5554 46.2082 13.4083 46.9678 15.249C47.0086 15.3479 47.0483 15.4477 47.0869 15.5487C47.4561 16.5157 47.7245 17.5969 47.9246 19.1212L47.9436 19.2701C47.9438 19.2706 47.9438 19.2713 47.9438 19.2718C48.0281 20.272 48.032 21.0409 47.8544 21.7644C47.6765 22.4887 47.3176 23.1643 46.6823 23.98C46.6725 23.9926 46.6575 24 46.6415 24H43.8677C43.8384 24 43.8167 23.973 43.8229 23.9444C44.08 22.7596 44.206 21.846 44.0889 20.9534C43.9719 20.0617 43.6117 19.1872 42.8899 18.0827C42.0678 16.8185 41.5525 15.8001 41.2715 14.737C40.9904 13.6738 40.9444 12.5688 41.0566 11.1324C41.0569 11.13 41.0573 11.1275 41.0579 11.1251C41.35 10.0049 41.6062 9.13401 42.1488 8.39019C42.6924 7.64507 43.5199 7.03143 44.9455 6.41633C45.2444 6.26601 45.4987 6.14794 45.7049 6.07673C45.8081 6.04106 45.9012 6.01653 45.983 6.00592ZM46.1626 6.10761C46.1231 6.09336 46.0694 6.08921 45.998 6.09847C45.9268 6.1077 45.8418 6.12974 45.7424 6.16407C45.5435 6.23279 45.2944 6.34824 44.9954 6.49865L44.9939 6.49939L44.9925 6.50002C43.5763 7.11087 42.7661 7.71494 42.2362 8.44136C41.0889 10.0141 40.9008 12.1417 41.2306 14.0603C41.2687 14.2822 41.316 14.4998 41.373 14.7154C41.6507 15.7659 42.1605 16.7753 42.9799 18.0354C43.7064 19.1471 44.0733 20.034 44.1925 20.9425C44.2384 21.2923 44.2475 21.6447 44.2265 22.0137C44.1707 22.9983 44.8676 23.9064 45.8537 23.9064C46.3323 23.9064 46.7928 23.6908 47.0541 23.29C47.4062 22.75 47.6261 22.2589 47.7524 21.7443C47.9267 21.0345 47.9239 20.2768 47.8397 19.2789C47.6384 17.6813 47.3661 16.5687 46.9881 15.5789C46.6099 14.5883 46.1253 13.7192 45.4973 12.6071C45.4948 12.6026 45.493 12.5976 45.4922 12.5926C45.2929 11.344 45.2148 10.4095 45.3048 9.56653C45.371 8.94607 45.5281 8.37645 45.7933 7.76857C45.9924 7.31228 46.2782 6.86599 46.2824 6.36818C46.2838 6.20333 46.234 6.13335 46.1626 6.10761Z" fill="#E0D0C1"/>
<path d="M73 51C73 65.9117 60.464 78 45 78C29.536 78 17 65.9117 17 51C17 36.0883 29.536 24 45 24C60.464 24 73 36.0883 73 51Z" fill="#B9CEE3"/>
<path d="M71.5572 51C71.5572 36.8805 59.6826 25.4072 45 25.4072C30.3174 25.4072 18.4428 36.8805 18.4428 51C18.4428 65.1195 30.3174 76.5928 45 76.5928V78C29.536 78 17 65.9117 17 51C17 36.0883 29.536 24 45 24C60.464 24 73 36.0883 73 51C73 65.9117 60.464 78 45 78V76.5928C59.6826 76.5928 71.5572 65.1195 71.5572 51Z" fill="#2870A7"/>
<path d="M65 50.5C65 61.2696 55.8218 70 44.5 70C33.1782 70 24 61.2696 24 50.5C24 39.7304 33.1782 31 44.5 31C55.8218 31 65 39.7304 65 50.5Z" fill="#B9CEE3"/>
<path d="M63.5551 50.5C63.5551 40.5218 55.0451 32.396 44.5 32.396C33.9549 32.396 25.4449 40.5218 25.4449 50.5C25.4449 60.4782 33.9549 68.604 44.5 68.604V70C33.1782 70 24 61.2696 24 50.5C24 39.7304 33.1782 31 44.5 31C55.8218 31 65 39.7304 65 50.5C65 61.2696 55.8218 70 44.5 70V68.604C55.0451 68.604 63.5551 60.4782 63.5551 50.5Z" fill="#2870A7"/>
<path d="M28.074 50.9918C28.0458 51.3749 28.0257 51.7466 28.0136 52.1096C27.945 54.1689 26.3094 54.7962 26.1028 52.7461C25.7958 50.6103 26.156 46.7238 27.4608 44.1062C28.5428 41.6244 29.777 39.3813 33.5937 36.4751C34.7744 35.6364 35.4299 35.182 36.7916 34.6331C39.6509 32.9794 45.1729 32.8487 46.2538 33.0981C47.7914 33.4528 47.5285 34.5244 45.9517 34.5844C41.6888 34.7466 38.4625 36.0072 34.5136 38.7118C30.083 42.7331 28.8424 45.4903 28.074 50.9918Z" fill="#A0BBCE"/>
<path d="M44.7189 33.0002C45.4317 32.9971 45.9826 33.0355 46.2575 33.0989C46.5253 33.1607 46.9298 33.2239 47.4263 33.307C47.922 33.39 48.5073 33.4924 49.1334 33.6326C50.3725 33.9099 51.7745 34.3352 52.9634 35.0508C52.9847 35.0636 52.994 35.0898 52.9855 35.1133C52.9771 35.1368 52.953 35.1511 52.9283 35.1476C48.7716 34.5537 45.6362 34.4664 42.8164 35.0218C39.9884 35.5787 37.4743 36.7827 34.5636 38.776C32.3571 40.779 30.9475 42.465 29.9934 44.333C29.0392 46.2013 28.5391 48.2549 28.1562 50.996C27.8669 54.9254 28.4362 57.6624 29.7152 61.9192C29.7223 61.943 29.7116 61.9689 29.6895 61.9803C29.6673 61.9917 29.6401 61.9856 29.625 61.9658C28.704 60.7683 27.9458 59.6607 27.3576 58.2614C26.7639 56.8493 26.3443 55.1422 26.1029 52.7481C25.9491 51.6777 25.9627 50.1716 26.1774 48.6067C26.392 47.0418 26.8082 45.4147 27.4618 44.1035C28.5432 41.6233 29.7788 39.3797 33.591 36.4765C33.5918 36.4759 33.5927 36.4754 33.5937 36.4751C34.7714 35.6386 35.4283 35.1826 36.7893 34.6336C38.2234 33.805 40.3197 33.3596 42.1886 33.1518C43.1244 33.0478 44.0047 33.0032 44.7189 33.0002ZM44.7192 33.0877C44.0082 33.0907 43.1309 33.1351 42.1983 33.2388C40.3314 33.4464 38.2486 33.8906 36.8306 34.7107L36.8279 34.7123L36.825 34.7135C35.4721 35.259 34.8215 35.7096 33.6452 36.5452L33.4689 36.6804C29.8067 39.5088 28.6011 41.7088 27.5409 44.1405L27.5405 44.1416L27.54 44.1425C26.892 45.4424 26.4778 47.0595 26.2639 48.6186C26.0567 50.129 26.0381 51.5817 26.1757 52.6349L26.1895 52.7356L26.1897 52.7375C26.4304 55.1265 26.8486 56.8252 27.4381 58.2275C27.7634 59.0014 28.6948 58.5775 28.5212 57.7562C28.0484 55.52 27.8844 53.4959 28.069 50.9887L28.0692 50.9872L28.0694 50.9858C28.4529 48.2398 28.9548 46.1746 29.9157 44.2932C30.8766 42.4116 32.2951 40.7169 34.507 38.7092L34.5092 38.7072L34.5117 38.7055C37.4296 36.707 39.9553 35.4961 42.7995 34.936C44.6353 34.5744 46.6025 34.4843 48.8916 34.6274C49.7164 34.6789 49.9207 33.8984 49.1143 33.718C48.4905 33.5783 47.9072 33.4762 47.412 33.3933C46.9178 33.3106 46.5091 33.2468 46.2379 33.1842C45.9737 33.1233 45.4317 33.0846 44.7192 33.0877Z" fill="#A0BBCE"/>
<path d="M65.8393 58.0174C65.6483 55.2633 65.569 51.118 62.6683 51.0025C60.4001 50.9121 60.1821 54.4423 60.0231 56.5968C59.9691 57.3292 59.9253 58.0825 59.8991 58.9401L59.5416 67.5704L59.4334 70.8485C59.3724 72.6977 59.2089 74.8288 60.7766 75.9155C61.9124 76.7028 63.802 76.7795 64.9437 75.9872C66.5762 74.8544 66.3976 72.6193 66.3458 70.7039L66.2387 66.7442L65.9674 59.8654L65.8393 58.0174Z" fill="#032A47"/>
<path d="M63.2 51.6749C63.6064 51.7239 63.9861 51.9331 64.3712 52.2904C64.732 52.6252 65.1 53.0923 65.5016 53.6857L65.5824 53.806L65.5848 53.8101C65.5869 53.8144 65.5882 53.819 65.5885 53.8237L66.0071 59.8628L66.0072 59.8639L66.2785 66.7427L66.4639 73.5998C66.4641 73.6044 66.4633 73.609 66.4617 73.6133C66.1114 74.5675 65.7939 75.2764 65.2699 75.7719C64.7442 76.269 64.0156 76.5471 62.8541 76.6526C62.8508 76.6529 62.8474 76.6528 62.8441 76.6523C61.7338 76.4837 61.0092 76.206 60.4811 75.7312C59.9538 75.257 59.6273 74.5904 59.3034 73.6556C59.3019 73.6514 59.3012 73.647 59.3013 73.6425L59.5017 67.5691L59.8593 58.939C59.923 56.8539 60.0903 55.3847 60.2574 53.3358C60.2581 53.3269 60.2621 53.3186 60.2687 53.3122C60.8837 52.7148 61.4136 52.2817 61.8902 52.01C62.3671 51.738 62.7935 51.6259 63.2 51.6749ZM64.3154 52.3446C63.9375 51.9939 63.573 51.7963 63.19 51.7501C62.8071 51.7039 62.3987 51.8083 61.9311 52.0749C60.7723 52.7357 60.2758 54.0563 60.1655 55.3341C60.0701 56.4399 59.9885 57.4831 59.9452 58.7477L59.939 58.9411L59.5814 67.5715L59.4586 71.2947C59.4074 72.845 59.3543 74.6135 60.5359 75.6761C61.7604 76.7771 63.9753 76.8617 65.1915 75.739C65.199 75.7321 65.2064 75.7252 65.2138 75.7182C65.6405 75.3147 65.9292 74.7628 66.2177 74.033C66.3317 73.7446 66.3798 73.4373 66.3715 73.13L66.1989 66.7456L65.9276 59.8679L65.64 55.719C65.5544 54.4848 65.2441 53.2063 64.3154 52.3446Z" fill="#032A47"/>
<path d="M64.82 51.7421C64.8246 52.4815 64.1642 53.0707 63.3887 53.0191C62.6195 52.968 62.077 52.306 62.0759 51.5726C62.0751 51.0416 62.022 50.5253 61.9519 49.8434C61.9499 49.8238 61.9445 49.8043 61.9362 49.7863C61.3847 48.5926 60.9317 48.1402 59.7482 47.9505C58.5291 47.7444 58.3146 47.2503 58.3353 46.0436L58.0677 40.64C58.1819 36.7552 58.3223 34.6573 58.8273 31.1827C59.6359 27.6751 60.4131 25.8881 62.1993 22.9222C62.8785 21.7427 63.3483 21.1988 63.737 21.4035C65.2468 22.1984 64.6489 24.5008 64.6593 26.1457L64.82 51.7421Z" fill="#09426D"/>
<path d="M63.6655 21.3352C63.7702 21.3617 63.8653 21.4323 63.9534 21.5414C64.0416 21.6505 64.1251 21.8009 64.206 21.9923C64.3577 22.3513 64.503 22.8608 64.6527 23.5289L64.6828 23.6646C64.6833 23.6671 64.6836 23.6696 64.6836 23.6721L64.8685 53.1147C64.8686 53.1368 64.8489 53.1543 64.8258 53.1527L61.9632 52.9623C61.9401 52.9607 61.9233 52.9409 61.9266 52.9191C62.1072 51.7446 62.0368 51.0595 61.9123 49.8472C61.9107 49.8315 61.9064 49.8161 61.8998 49.8017C61.6266 49.2104 61.3798 48.8066 61.0597 48.5264C60.7359 48.2429 60.3333 48.0827 59.7415 47.9879C59.1281 47.8842 58.7557 47.7062 58.5433 47.3928C58.3329 47.0823 58.2851 46.6468 58.2954 46.0445L58.0279 40.6418L58.0278 40.6404L58.0279 40.639C58.142 36.7534 58.2825 34.654 58.7878 31.1777C58.7879 31.1767 58.7881 31.1756 58.7884 31.1747C59.5979 27.6632 60.3765 25.8727 62.1643 22.9042L62.2231 22.8027C62.5145 22.3036 62.7681 21.9239 62.9943 21.675C63.115 21.5423 63.2296 21.4448 63.34 21.3866C63.4511 21.328 63.5598 21.3083 63.6655 21.3352ZM63.8902 21.5876C63.8081 21.486 63.7265 21.4291 63.6448 21.4083C63.564 21.3878 63.4766 21.4011 63.3786 21.4528C63.2798 21.5048 63.1723 21.595 63.0546 21.7245C62.834 21.9673 62.5837 22.3413 62.293 22.8392L62.2342 22.9404C60.4501 25.9028 59.6741 27.6867 58.8665 31.1894C58.362 34.661 58.2217 36.7574 58.1076 40.6399L58.3751 46.0419C58.3752 46.0426 58.3752 46.0435 58.3751 46.0443C58.3647 46.6478 58.4141 47.0623 58.6103 47.3518C58.8048 47.6387 59.1496 47.8108 59.7552 47.9132C60.3558 48.0095 60.7748 48.1739 61.1138 48.4706C61.4305 48.7479 61.6742 49.1381 61.9333 49.6868L61.9854 49.7987C61.9871 49.8023 61.9881 49.8062 61.9885 49.8102L61.9916 49.8397C62.062 50.525 62.1154 51.0443 62.1156 51.58C62.116 52.291 62.6437 52.9316 63.3894 52.9812C64.1429 53.0314 64.7847 52.4588 64.7801 51.7403L64.6147 25.3963C64.6075 24.2525 64.5797 23.0798 64.132 22.0206C64.0525 21.8324 63.9722 21.6891 63.8902 21.5876Z" fill="#09426D"/>
<path d="M62.4126 20.8586C62.4685 20.8458 62.5379 20.8474 62.594 20.8587C63.0145 20.9435 62.9138 21.8486 62.6523 22.1751C62.5969 22.2442 62.5392 22.3183 62.4783 22.3972L61.3228 24.3119C60.4203 26.1832 59.6681 28.1162 59.0727 30.0941C58.9629 30.4588 58.8796 30.8309 58.8236 31.2076L58.5456 33.076L58.1356 38.0075L58.0522 41.7943L58.3312 46.4463C58.328 47.3275 58.4747 47.7513 59.8076 48.0009C60.8197 48.262 61.2949 48.607 61.7031 49.4346C61.8432 49.7186 61.9163 50.0286 61.9478 50.3414C62.026 51.1173 62.0379 51.6897 61.965 52.4421C61.9367 52.7344 61.7109 52.9741 61.4109 53.0442C60.9182 53.1594 60.4579 52.7803 60.5008 52.3C60.5551 51.6926 60.574 51.291 60.541 50.8495C60.4931 50.2105 59.9909 49.7172 59.3411 49.5503C58.5571 49.3488 57.6778 49.0627 57.3839 48.5373C57.1575 47.9934 56.9582 47.4798 56.897 47.0084C56.7253 45.0865 56.7967 45.8068 56.7189 44.9796L56.5802 37.9593L56.9764 33.27C57.2888 31.2832 57.5222 30.2686 57.929 28.4427C58.1081 27.9039 58.2639 27.4419 58.4161 27.0083C59.0801 25.1155 59.92 23.253 61.1922 21.6636C61.5861 21.2319 61.8237 20.9935 62.4126 20.8586Z" fill="#032642"/>
<path d="M63.2562 20.9933C63.4711 21.1011 63.6657 21.2493 63.8932 21.4635C63.9182 21.4871 63.9239 21.5235 63.9072 21.5531C63.8905 21.5827 63.8553 21.5983 63.8208 21.5916C63.5656 21.5414 63.3774 21.5899 63.1892 21.7275C62.9945 21.87 62.8014 22.1065 62.5452 22.4384L61.3935 24.3471C60.4939 26.2123 59.7441 28.1389 59.1506 30.1104C59.041 30.4745 58.9579 30.8462 58.9019 31.2223L58.6248 33.0848L58.2153 38.0102L58.132 41.793L58.4108 46.4419L58.4109 46.4464C58.4093 46.8877 58.4469 47.1892 58.6312 47.4138C58.8155 47.6384 59.1604 47.8025 59.8232 47.9266L59.8287 47.9278C60.4216 48.0807 60.8423 48.2648 61.1734 48.5626C61.4831 48.8413 61.7079 49.214 61.9266 49.7368L61.9702 49.8433L61.9733 49.8524C61.9741 49.8555 61.9747 49.8587 61.975 49.8619C62.119 51.0773 62.1408 51.7552 61.9889 52.9367C61.9849 52.968 61.9609 52.9937 61.9288 53.0012L60.4255 53.3525C60.4004 53.3584 60.3739 53.3524 60.3544 53.3364C60.3349 53.3204 60.3247 53.2964 60.3271 53.272C60.4671 51.8456 60.5274 51.3291 60.4296 50.5374C60.3794 50.1304 60.0664 49.8065 59.6491 49.7051C59.366 49.6364 59.0527 49.558 58.7486 49.4616C58.4447 49.3654 58.1471 49.2502 57.8958 49.107C57.6451 48.964 57.4349 48.7898 57.3136 48.5728C57.3122 48.5704 57.3109 48.5678 57.3098 48.5652C57.0838 48.0223 56.8806 47.5001 56.8179 47.0177C56.8178 47.0168 56.8177 47.0158 56.8176 47.0149C56.6456 45.0901 56.7174 45.8146 56.6395 44.9864C56.6393 44.9846 56.6393 44.9829 56.6392 44.9811L56.5005 37.9609C56.5005 37.9584 56.5005 37.9558 56.5007 37.9533L56.897 33.264C56.8971 33.2623 56.8974 33.2606 56.8976 33.2589C57.2103 31.2696 57.4442 30.253 57.8511 28.427C57.8516 28.4247 57.8523 28.4223 57.853 28.42C58.4096 26.7455 58.7424 25.8105 59.4354 24.1695C59.4368 24.166 59.4385 24.1627 59.4405 24.1595C60.0633 23.1446 60.3872 22.5444 61.1289 21.6177C61.1299 21.6164 61.131 21.6152 61.1321 21.614C61.3375 21.3888 61.5065 21.2091 61.7084 21.0703C61.9125 20.93 62.1468 20.8335 62.4814 20.7662L62.4893 20.765C62.4972 20.7642 62.5051 20.7645 62.5129 20.7659C62.8102 20.82 63.0412 20.8854 63.2562 20.9933ZM62.6535 22.1736C62.9147 21.8477 63.0053 20.9408 62.5851 20.8569C62.5762 20.8551 62.5671 20.8534 62.558 20.8516C62.5184 20.8439 62.4775 20.8446 62.4379 20.8529C61.8304 20.9867 61.5917 21.2258 61.1922 21.6636C59.92 23.253 59.0801 25.1155 58.4161 27.0083C58.2639 27.4419 58.1081 27.9039 57.929 28.4427C57.5222 30.2686 57.2888 31.2832 56.9764 33.27L56.5802 37.9593L56.7189 44.9796C56.7967 45.8068 56.7253 45.0865 56.897 47.0084C56.9582 47.4798 57.1575 47.9934 57.3839 48.5373C57.6778 49.0627 58.5571 49.3488 59.3411 49.5503C59.9909 49.7172 60.4931 50.2105 60.541 50.8495C60.574 51.291 60.5551 51.6926 60.5008 52.3C60.4579 52.7803 60.9182 53.1594 61.4109 53.0442C61.7109 52.9741 61.9367 52.7344 61.965 52.4421C62.0455 51.6111 62.0226 50.9999 61.9213 50.0914C61.9044 49.9447 61.869 49.8003 61.8095 49.6642C61.3743 48.6682 60.9086 48.285 59.8076 48.0009L59.746 47.9891C58.5107 47.7459 58.3382 47.3405 58.3314 46.5276L58.3312 46.4463L58.0522 41.7943L58.1356 38.0075L58.5456 33.076L58.8236 31.2076C58.8796 30.8309 58.9629 30.4588 59.0727 30.0941C59.6681 28.1162 60.4203 26.1832 61.3228 24.3119L62.4783 22.3972C62.5396 22.3178 62.5977 22.2432 62.6535 22.1736Z" fill="#032642"/>
<path d="M63.946 57.697C63.4478 58.2283 62.5912 58.2756 62.0328 57.8028C61.4743 57.33 61.4255 56.516 61.9237 55.9848C62.422 55.4535 63.2785 55.4062 63.837 55.879C64.3954 56.3518 64.4442 57.1658 63.946 57.697Z" fill="#21689E"/>
<path d="M63.9179 72.2909C63.4196 72.8221 62.5631 72.8695 62.0046 72.3967C61.4462 71.9239 61.3974 71.1099 61.8956 70.5787C62.3938 70.0474 63.2504 70.0001 63.8088 70.4729C64.3673 70.9457 64.4161 71.7597 63.9179 72.2909Z" fill="#21689E"/>
<path d="M25.7684 53.6495C25.78 53.6475 25.7916 53.6443 25.8025 53.6402C25.8161 53.635 25.8303 53.6314 25.8447 53.6295L26.6041 53.5309C27.5799 53.4042 28.8545 53.3389 29.2357 54.2071C29.3568 54.4829 29.3756 54.7816 29.3914 55.08L29.9377 65.3757L30.1835 70.8546C30.2594 72.5481 30.3194 74.6362 28.8578 75.5946C27.6202 76.4061 25.8476 76.133 24.6947 75.209C24.4132 74.9834 24.1969 74.7174 24.0317 74.3884C23.5885 73.506 23.6566 72.482 23.6828 71.5049L23.9183 62.7146L24.2446 55.0503C24.3676 53.9409 24.8661 53.8088 25.7684 53.6495Z" fill="#032842"/>
<path d="M24.2078 55.0412C24.3327 54.5802 24.516 54.2999 24.7754 54.096C25.0326 53.8937 25.3624 53.7685 25.772 53.6127L25.8089 53.5987L25.8179 53.5964L28.0863 53.3018L28.091 53.3015C28.0958 53.3015 28.1005 53.3022 28.105 53.3039C28.5451 53.4643 28.8331 53.6213 29.0297 53.8266C29.2269 54.0325 29.3287 54.2834 29.4048 54.6241C29.4053 54.626 29.4055 54.6279 29.4056 54.6298L29.9757 65.3738L30.3365 73.4174C30.3367 73.4221 30.336 73.4268 30.3343 73.4312C29.9551 74.4404 29.5708 75.1041 29.0218 75.5235C28.472 75.9436 27.7626 76.1144 26.7444 76.1513C26.7402 76.1515 26.7361 76.151 26.7321 76.1498C25.6932 75.8543 24.974 75.5493 24.4833 75.0718C23.9914 74.5932 23.7336 73.9461 23.6057 72.9771C23.6054 72.9754 23.6054 72.9735 23.6054 72.9717L23.8804 62.7138L24.2067 55.0488L24.2078 55.0412ZM24.8237 54.152C24.7414 54.2166 24.6669 54.2896 24.5995 54.3752C24.2861 54.7734 24.2717 55.3069 24.2505 55.8051L23.9563 62.7161L23.7008 72.2495C23.6879 72.7297 23.6951 73.2142 23.8146 73.6811C23.9624 74.2588 24.1914 74.6841 24.5376 75.0209C24.5692 75.0517 24.6019 75.0818 24.6355 75.1112C25.7901 76.1191 27.7562 76.3975 28.9743 75.4669C30.2825 74.4675 30.2233 72.5904 30.1515 70.9902L29.8997 65.3773L29.3744 55.4787C29.3447 54.9181 29.3708 54.2902 28.9735 53.8754C28.5133 53.3949 27.7329 53.4209 27.0583 53.5085L25.8673 53.6632C25.8443 53.6662 25.8217 53.6719 25.8002 53.6801C25.3874 53.8372 25.0699 53.9584 24.8237 54.152Z" fill="#032842"/>
<path d="M29.6686 42.7068C29.0862 43.23 28.7586 43.9614 28.7642 44.7259L28.8188 52.1659C28.8252 53.0447 28.0714 53.7536 27.1508 53.7344C26.2304 53.7152 25.5054 52.9754 25.5469 52.0977L25.8055 46.6255L25.8083 44.7374C25.8091 44.2419 25.6791 43.7538 25.4305 43.3182C25.162 42.8479 24.7558 42.4676 24.2997 42.1554C23.6495 41.7101 23.2428 41.2783 22.9241 40.7579C22.4086 39.9161 22.2672 38.9223 22.2059 37.9501L22.1557 37.1539L22.6346 26.0398C22.6646 25.344 22.743 24.3329 23.464 24.2268C24.2568 24.1101 24.3571 25.3299 24.3715 26.0959L24.5439 35.2912C24.5532 35.7876 24.6648 36.5022 25.0293 36.8573C25.823 37.6306 26.314 35.7965 26.3007 34.7154L26.1961 26.2006C26.1854 25.3303 26.2426 23.8048 27.1387 23.9681C27.9349 24.1132 27.9177 25.2213 27.9466 25.9942L28.2991 35.4119C28.3239 36.073 28.5633 37.0495 29.2563 37.0579C30.0104 37.067 30.1038 36.0859 30.0916 35.3661L29.9985 29.9091L29.8962 25.4713C29.8822 24.8656 29.9374 24.0167 30.5703 23.9727C31.3016 23.9217 31.539 24.945 31.5839 25.6438L31.7836 28.7538L32.3997 38.0619C32.4228 38.8077 32.3747 39.2509 32.0099 40.1553C31.5267 41.2097 31.0683 41.7339 30.024 42.4329C29.8993 42.5164 29.7795 42.6071 29.6686 42.7068Z" fill="#012842"/>
<path d="M23.0879 24.3978C23.2248 24.2685 23.3591 24.1942 23.4995 24.1868C23.6404 24.1793 23.778 24.2396 23.9203 24.359C24.0624 24.4784 24.2131 24.66 24.3812 24.9031C24.3852 24.9089 24.3873 24.9156 24.3875 24.9224L24.581 35.2447C24.5908 35.767 24.6403 36.3198 24.9712 36.7367C25.0941 36.8915 25.2131 36.9656 25.3354 36.98C25.4584 36.9946 25.5943 36.95 25.7535 36.8461C26.1335 36.5979 26.2802 36.1399 26.2748 35.6998L26.1418 24.8731L26.1421 24.8684C26.1426 24.8637 26.1442 24.8592 26.1466 24.8551C26.333 24.5348 26.4974 24.3011 26.6495 24.1487C26.8012 23.9966 26.946 23.9199 27.093 23.9265C27.2394 23.933 27.3748 24.0217 27.5091 24.1696C27.644 24.318 27.7831 24.5321 27.9361 24.8018C27.9389 24.8067 27.9405 24.8122 27.9407 24.8178L28.3494 35.7389C28.3659 36.179 28.5032 36.6423 28.8849 36.8906C29.036 36.9889 29.1673 37.0277 29.2903 37.0209C29.4137 37.014 29.5345 36.9611 29.6639 36.865C29.9605 36.6447 30.0689 36.2714 30.0628 35.9122L29.9605 29.9098L29.8367 24.5425L29.837 24.5371C29.8378 24.5317 29.8398 24.5265 29.8429 24.5219C30.1158 24.1214 30.355 23.9224 30.6292 23.9359C30.7649 23.9425 30.9029 24.0013 31.051 24.1029C31.1991 24.2045 31.3603 24.3512 31.5423 24.538C31.5483 24.5442 31.5519 24.5522 31.5525 24.5605L31.8215 28.7515L32.4376 38.0596C32.4376 38.06 32.4377 38.0604 32.4377 38.0608C32.4493 38.4346 32.4431 38.7346 32.3878 39.055C32.3325 39.3754 32.2283 39.7148 32.0454 40.1683C32.0452 40.1688 32.0449 40.1693 32.0447 40.1698C31.7881 40.7298 31.5375 41.1428 31.2019 41.5119C30.9032 41.8404 30.5384 42.1329 30.0448 42.4632C29.9219 42.5455 29.8041 42.6349 29.6947 42.7331C29.12 43.2494 28.7967 43.9712 28.8022 44.7256L28.8686 53.7692C28.8686 53.779 28.8645 53.7884 28.8572 53.7953C28.8499 53.8022 28.84 53.8059 28.8297 53.8057L25.4704 53.7356C25.4601 53.7354 25.4504 53.7313 25.4435 53.7242C25.4365 53.717 25.4328 53.7075 25.4332 53.6978L25.7675 46.6239L25.7703 44.738C25.7711 44.2481 25.6426 43.7656 25.3968 43.335C25.1317 42.8708 24.7313 42.4951 24.281 42.1872C23.8174 41.8701 23.4756 41.5592 23.2011 41.2178C22.801 40.7202 22.5456 40.1602 22.2627 39.429L22.2612 39.4239C22.2608 39.4222 22.2606 39.4204 22.2605 39.4186L22.1179 37.1561L22.1178 37.1524L22.6424 24.9767L22.6429 24.972C22.6437 24.9674 22.6455 24.963 22.6481 24.959C22.8072 24.7155 22.9508 24.5272 23.0879 24.3978ZM23.1413 24.4493C22.8114 24.7609 22.7078 25.2224 22.6887 25.6657L22.1938 37.1535L22.2114 37.433C22.294 38.7431 22.4232 40.1312 23.2614 41.1736C23.6539 41.6617 24.1887 42.0893 25.0395 42.5682C25.0454 42.5715 25.0502 42.5763 25.0535 42.5821L25.8429 43.9648C25.8459 43.9701 25.8475 43.9761 25.8475 43.9822L25.8435 46.6255C25.8435 46.6261 25.8435 46.6266 25.8435 46.6271L25.5848 52.0994C25.5443 52.9568 26.2524 53.6794 27.1515 53.6981C28.0507 53.7169 28.787 53.0244 28.7807 52.166L28.7174 43.5274L28.7181 43.52C28.7196 43.5127 28.7235 43.5059 28.7293 43.5008L29.8092 42.5306C29.8107 42.5293 29.8123 42.5281 29.814 42.5271C30.4026 42.1459 30.8153 41.8264 31.1445 41.4644C31.4734 41.1026 31.7203 40.6966 31.975 40.1407C32.1565 39.6906 32.2586 39.3567 32.3127 39.0433C32.3669 38.7296 32.3732 38.435 32.3617 38.063L31.7457 28.7561L31.5166 25.1897C31.4912 24.7944 31.3439 24.3933 31.0066 24.1618C30.8645 24.0643 30.7404 24.014 30.6252 24.0083C30.0047 23.9778 29.9203 24.8695 29.934 25.4624L30.0366 29.9083L30.1487 36.4818C30.1488 36.4906 30.1456 36.4991 30.1396 36.5058C29.9864 36.6788 29.8467 36.8211 29.7106 36.9222C29.5742 37.0235 29.4389 37.0853 29.2946 37.0933C29.1501 37.1013 29.0024 37.0549 28.842 36.9506C28.6821 36.8466 28.5076 36.6836 28.3081 36.4551L28.3045 36.4502C28.3014 36.4451 28.2996 36.4392 28.2993 36.4332L27.8922 25.5572C27.8743 25.0783 27.781 24.5796 27.4517 24.2171C27.322 24.0744 27.2044 24.0041 27.0894 23.9989C26.975 23.9938 26.8501 24.0526 26.7045 24.1986C26.3125 24.5917 26.2214 25.1677 26.2281 25.711L26.3594 36.3996C26.3595 36.409 26.3558 36.418 26.3491 36.4248C26.1442 36.633 25.9625 36.7975 25.7965 36.9059C25.6307 37.0142 25.4757 37.0698 25.326 37.0521C25.1755 37.0343 25.04 36.9435 24.9106 36.7805C24.7813 36.6175 24.6547 36.3784 24.5225 36.055C24.5209 36.051 24.52 36.0467 24.5199 36.0424L24.3242 25.6053C24.316 25.1672 24.2152 24.7033 23.87 24.4135C23.7357 24.3007 23.6169 24.2532 23.5036 24.2592C23.3898 24.2653 23.2721 24.3258 23.1413 24.4493Z" fill="#012842"/>
<path d="M27.8771 56.668C28.3662 57.1639 28.3412 57.9445 27.8212 58.4116C27.3013 58.8787 26.4833 58.8554 25.9942 58.3595C25.5051 57.8637 25.5301 57.083 26.0501 56.6159C26.57 56.1488 27.388 56.1722 27.8771 56.668Z" fill="#1F689D"/>
<path d="M28.0651 70.9429C28.5542 71.4387 28.5292 72.2194 28.0092 72.6864C27.4893 73.1535 26.6713 73.1302 26.1822 72.6344C25.6931 72.1385 25.7181 71.3579 26.2381 70.8908C26.758 70.4237 27.576 70.447 28.0651 70.9429Z" fill="#1F689D"/>
</svg>
