<svg width="50" height="46" viewBox="0 0 50 46" fill="none" xmlns="http://www.w3.org/2000/svg">
<path d="M32.6849 38.7752C33.2773 39.2198 33.8215 39.7393 34.3903 40.2123L38.4024 43.5252C38.9528 43.9735 39.4878 44.5024 40.0835 44.8924C40.6811 45.2837 41.4931 45.1612 41.5491 44.4334C41.5674 44.1961 41.5231 43.9333 41.488 43.698L40.7875 39.4329C40.5261 37.8924 40.2077 36.3791 40.9485 34.8992C41.1691 34.4586 41.4983 34.0572 41.7855 33.6536C42.5623 32.5619 43.0879 31.4282 43.3916 30.1457L43.543 29.404C43.5651 29.2854 43.5313 29.1591 43.6565 29.0998C44.7677 28.5732 45.9008 28.4838 46.8776 27.5627C47.3507 27.1165 47.3143 26.6929 47.3152 26.089C48.6861 25.8618 49.7593 24.5775 49.9519 23.3105C50.0194 22.8667 49.9961 22.4045 49.9962 21.9567C49.9968 20.6114 50.0399 19.299 48.8479 18.3371C48.6018 18.1385 47.6902 17.5444 47.3731 17.5915C47.3139 17.6003 47.3493 17.6073 47.294 17.5826C47.2001 15.7268 46.0865 15.3559 44.4406 14.829L43.829 14.6427C43.7706 14.6266 43.6407 14.61 43.5929 14.5815C43.5756 14.5711 43.436 13.7249 43.415 13.6215C42.6284 9.74376 40.3613 7.78479 36.6467 6.58247C34.0208 5.73252 31.2134 5.35614 28.4535 5.18974L25.7952 5.10404L25.8102 4.66431C25.9227 4.57404 26.01 4.55702 26.1354 4.49867C28.2735 3.50461 27.8316 0.250544 25.0926 0.00372452C22.7043 -0.122446 21.5212 2.9902 23.6236 4.28803C23.7796 4.38438 24.003 4.44696 24.1361 4.56036L24.1393 5.07766L22.5318 5.12851C19.3766 5.30104 16.1546 5.62805 13.1544 6.62169C8.59092 8.13308 7.16754 10.4131 6.37001 14.6044C5.23744 14.7572 3.03047 15.5757 2.77539 16.6834L2.76658 16.7231C2.58455 17.5062 2.99431 17.4371 2.2866 17.6629C0.311969 18.2929 0.0141252 19.6903 0.00982843 21.4255C0.00773243 22.2797 -0.0671947 23.2203 0.232008 24.0378C0.549551 24.9051 1.27749 25.6862 2.25778 25.8572C2.36258 25.8754 2.48813 25.8759 2.58413 25.9202L2.61714 26.6884C2.77675 28.053 4.79456 28.6186 5.94914 28.9182C6.69908 29.113 6.35691 29.0047 6.55268 29.9396C7.82662 36.0252 12.9379 36.7745 18.4119 37.3253L22.6192 37.6308L27.0564 37.6359C29.4994 37.6311 30.5658 37.135 32.6849 38.7752ZM25.1419 1.5651C26.1724 1.93828 26.01 3.25503 24.8292 3.14085C23.7597 2.88079 24.0681 1.53173 25.1419 1.5651ZM26.1902 6.63227C29.1533 6.65086 32.6714 7.05196 35.4855 7.8384C40.1947 9.15432 41.5272 11.2784 42.1189 15.5686L42.464 19.0629L42.4723 23.9994C42.4666 24.5852 42.3899 25.1718 42.3442 25.756C42.1967 27.641 42.0818 29.6306 41.28 31.3862C40.946 32.1176 40.4645 32.7204 39.9991 33.3743C38.5526 35.407 38.7668 37.3463 39.1395 39.6308L39.6493 42.5208L35.732 39.2734C34.3266 38.0913 32.9951 36.7121 31.1351 36.2076C30.4529 36.0602 29.8518 36.0212 29.1502 36.0234L27.7462 36.0385C27.199 36.0622 26.751 36.1077 26.1688 36.1088L23.3331 36.1054C23.1122 36.0968 22.8898 36.054 22.6663 36.044L20.8143 35.9727L16.2853 35.5021C10.267 34.6352 8.48277 33.2968 7.79256 27.2339L7.5073 23.948L7.49671 19.6006C7.50216 19.4442 7.53507 19.2907 7.54356 19.1346L7.8218 16.0174C8.37923 11.8131 9.28847 9.42507 14.0297 7.97503C16.2892 7.28404 18.5589 7.00339 20.9151 6.80607L23.2026 6.63939L26.1902 6.63227ZM6.17037 16.2136L5.8544 19.3145L5.85052 23.8167L6.16062 27.3651L4.88668 26.9016C4.68484 26.8118 4.48215 26.7397 4.29676 26.6224L4.32537 17.0505L6.17037 16.2136ZM43.9031 16.2996L44.9029 16.692C45.1479 16.797 45.4087 16.9062 45.6186 17.0687C45.6814 17.4979 45.6961 17.9332 45.7242 18.3655L45.7992 24.2718C45.7798 24.654 45.6834 26.5119 45.6391 26.5613C45.4981 26.718 45.2002 26.8404 45.0029 26.9252L44.2966 27.2097C44.1463 27.2646 43.9727 27.309 43.8403 27.397L44.109 24.1904L44.1235 21.706C44.123 20.524 44.1432 19.3404 44.0271 18.1621L43.854 16.4723C43.8452 16.4013 43.811 16.3507 43.8631 16.2954L43.9031 16.2996ZM2.59796 19.1999C2.4874 20.0367 2.52544 20.899 2.5245 21.7405C2.52366 22.5908 2.48645 23.4603 2.5705 24.307C2.35304 24.2134 2.17132 24.0795 1.99694 23.9261C1.48153 23.2837 1.57878 22.4093 1.5792 21.6473C1.57983 20.6794 1.58088 19.9013 2.49085 19.2649L2.59796 19.1999ZM47.4218 19.3141C47.8269 19.5117 48.146 19.767 48.2709 20.176L48.3004 20.2815C48.5089 21.0466 48.4612 23.202 48.0625 23.8451L47.9164 24.0485C47.7803 24.2018 47.5614 24.3166 47.4592 24.4781L47.4218 19.3141Z" fill="white"/>
<path d="M24.6169 34.371C27.7843 34.3867 30.8665 33.6134 33.2972 31.5706C35.7504 29.5089 36.7942 26.4213 37.2034 23.4179L37.3422 22.0934C37.3587 21.9142 37.3902 21.7357 37.3989 21.556L37.4093 18.3683C37.4067 18.1164 37.4213 17.839 37.3488 17.5948L37.3374 17.5574C37.1339 16.8338 36.1116 16.3978 35.4877 16.0577C32.8261 14.6069 28.946 13.2975 25.8056 13.2136L25.8081 12.3401C25.8939 12.2746 25.9884 12.2646 26.0879 12.229C27.9416 11.5635 27.8481 8.58118 25.2693 8.19732C22.666 7.97021 21.6103 11.2158 23.817 12.1481C23.9332 12.1972 24.0662 12.2084 24.1866 12.2546L24.1918 13.203C20.8637 13.3193 16.6862 14.6806 13.9412 16.3375C13.2874 16.732 12.6099 16.9645 12.5691 17.7664L12.5567 19.6252C12.5568 20.3566 12.5341 21.0986 12.5832 21.8281L12.6694 22.5906C12.9893 25.5358 13.8397 28.6599 15.9892 30.8909C18.1736 33.1584 21.4482 34.2385 24.6169 34.371ZM25.1978 9.73994C26.0671 10.0771 25.8252 11.0269 24.8484 10.8998C23.8811 10.5869 24.2553 9.60302 25.1978 9.73994ZM25.6122 14.7203C28.3852 14.9168 30.9682 15.6752 33.4586 16.8088L34.7176 17.4249C34.8709 17.5085 35.6752 17.9325 35.7495 18.0144L35.7042 22.0841C35.5047 24.7185 34.853 27.6771 32.9559 29.6987C31.3146 31.4477 28.3881 32.6899 25.9008 32.8187L24.2827 32.8305C18.4206 32.361 15.3858 29.1255 14.4899 23.8106L14.2407 21.8301C14.1761 21.3371 14.1987 20.8113 14.1977 20.3143L14.2043 18.0311C14.3026 17.9234 14.3999 17.9066 14.5229 17.8389L15.2521 17.4102C17.9021 15.9555 21.0672 14.9406 24.1243 14.733L25.6122 14.7203Z" fill="white"/>
<path d="M29.8225 23.413C33.1028 23.4572 33.2514 19.0822 30.055 18.7885C27.2494 18.5921 26.4359 22.9611 29.8225 23.413ZM30.0645 20.3495C31.1051 20.6928 30.7974 21.9629 29.8578 21.814C28.8893 21.5171 29.0515 20.3339 30.0645 20.3495Z" fill="white"/>
<path d="M19.7506 23.3792C20.3537 23.4432 20.9645 23.2772 21.457 22.9456C23.2098 21.7657 22.5138 19.1638 20.2682 18.8352C17.1417 18.5295 16.5724 22.9514 19.7506 23.3792ZM20.0559 20.378C21.0564 20.5817 20.9676 21.7798 19.9861 21.8139C18.9865 21.6331 19.0495 20.4556 20.0559 20.378Z" fill="white"/>
<path d="M19.7918 28.6036C22.5004 30.1968 26.3343 30.3435 29.232 29.0923C29.7149 28.8838 30.5942 28.5576 30.7771 28.0556C30.9568 27.5627 30.6184 27.2022 30.1358 27.0773C29.6682 27.0601 29.3554 27.3256 28.9548 27.5155C26.5383 28.6614 23.6478 28.64 21.2107 27.5824C20.6801 27.3522 19.837 26.686 19.3348 27.3503C18.9432 27.8684 19.3437 28.3128 19.7918 28.6036Z" fill="white"/>
</svg>
