<svg width="40" height="40" viewBox="0 0 40 40" fill="none" xmlns="http://www.w3.org/2000/svg">
<path d="M38.3332 40L19.9998 21.755L1.6665 40V5C1.6665 3.67392 2.19329 2.40215 3.13097 1.46447C4.06865 0.526784 5.34042 0 6.6665 0L33.3332 0C34.6592 0 35.931 0.526784 36.8687 1.46447C37.8064 2.40215 38.3332 3.67392 38.3332 5V40ZM19.9998 17.0533L34.9998 31.975V5C34.9998 4.55797 34.8242 4.13405 34.5117 3.82149C34.1991 3.50893 33.7752 3.33333 33.3332 3.33333H6.6665C6.22448 3.33333 5.80055 3.50893 5.48799 3.82149C5.17543 4.13405 4.99984 4.55797 4.99984 5V31.975L19.9998 17.0533Z" fill="currentColor"/>
</svg>
